<svg xmlns="http://www.w3.org/2000/svg" id="Layer_1" viewBox="0 0 128 128"><defs><style>.cls-1{fill:#06c755}</style></defs><g id="LINE_LOGO"><rect width="128" height="128" class="cls-1" rx="28.86" ry="28.86"/><path d="M106.66 57.97c0-19.1-19.14-34.63-42.68-34.63S21.3 38.88 21.3 57.97c0 17.12 15.18 31.46 35.69 34.17 1.39.3 3.28.92 3.76 2.1.43 1.08.28 2.77.14 3.86 0 0-.5 3.01-.61 3.65-.19 1.08-.86 4.22 3.7 2.3s24.58-14.47 33.53-24.78c6.18-6.78 9.15-13.66 9.15-21.31Z" style="fill:#fff"/><path d="M92.46 69H80.47c-.45 0-.82-.36-.82-.82V49.56c0-.45.36-.82.82-.82h11.99c.45 0 .82.37.82.82v3.03c0 .45-.36.82-.82.82h-8.15v3.14h8.15c.45 0 .82.37.82.82v3.03c0 .45-.36.82-.82.82h-8.15v3.14h8.15c.45 0 .82.37.82.82v3.03c0 .45-.36.82-.82.82ZM48.12 69c.45 0 .82-.36.82-.82v-3.03c0-.45-.37-.82-.82-.82h-8.15V49.55c0-.45-.37-.82-.82-.82h-3.03c-.45 0-.82.36-.82.82v18.63c0 .45.36.82.82.82h11.99Z" class="cls-1"/><rect width="4.66" height="20.26" x="51.49" y="48.74" class="cls-1" rx=".82" ry=".82"/><path d="M75.94 48.74h-3.03c-.45 0-.82.36-.82.82v11.06l-8.52-11.51s-.04-.06-.06-.08-.03-.04-.05-.06c0 0-.01 0-.02-.01a.08.08 0 0 1-.04-.04s-.02-.01-.02-.02c-.01-.01-.03-.02-.04-.03 0 0-.02-.01-.02-.02-.02 0-.03-.02-.04-.02 0 0-.02 0-.02-.01-.02 0-.03-.02-.05-.02h-.03c-.02 0-.03-.01-.05-.02h-.03c-.02 0-.03 0-.05-.01h-3.16c-.45 0-.82.36-.82.82v18.62c0 .45.36.82.82.82h3.03c.45 0 .82-.36.82-.82V57.15l8.53 11.52c.06.08.13.15.21.2.02.01.03.02.05.03 0 0 .02 0 .02.01.01 0 .03.01.04.02.01 0 .03.01.04.02h.02c.02 0 .04.01.06.02h.01q.105.03.21.03h3.01c.45 0 .82-.36.82-.82V49.56c0-.45-.36-.82-.82-.82" class="cls-1"/></g></svg>